# xmcd CD database file
#
# Track frame offsets:
#	150
#	10440
#	23730
#	34640
#	48145
#	64647
#	76595
#	89702
#	106182
#	115772
#	127070
#
# Disc length: 1931 seconds
#
# Revision: 0
# Processed by: cddbd v1.5.1PL0 Copyright (c) Steve Scherf et al.
# Submitted via: CDex 1.51
#
DISCID=7f07890b
DTITLE=Rick and The Arrhythmics - In Tacky Arrhythmia
DYEAR=1900
DGENRE=Blues
TTITLE0=Wooly Bully
TTITLE1=Rescue Me
TTITLE2=Please, Mr. Postman
TTITLE3=Knock On Wood
TTITLE4=Do You Love Me?
TTITLE5=Ain't Too Proud To Beg
TTITLE6=I Can't Turn You Loose
TTITLE7=He Will Break Your Heart
TTITLE8=I've Been Hurt
TTITLE9=Louie Louie
TTITLE10=Mustang Sally
EXTD=
EXTT0=
EXTT1=
EXTT2=
EXTT3=
EXTT4=
EXTT5=
EXTT6=
EXTT7=
EXTT8=
EXTT9=
EXTT10=
PLAYORDER=
